<?xml version="1.0" encoding="utf-8"?>
<!-- Generator: Adobe Illustrator 24.1.2, SVG Export Plug-In . SVG Version: 6.00 Build 0)  -->
<svg version="1.1" id="Camada_1" xmlns="http://www.w3.org/2000/svg" xmlns:xlink="http://www.w3.org/1999/xlink" x="0px" y="0px"
	 viewBox="0 0 512 512" style="enable-background:new 0 0 512 512;" xml:space="preserve">
<style type="text/css">
	.st0{fill:#F11515;}
	.st1{fill:#F4F4F4;}
	.st2{fill:#FF3A32;}
</style>
<g>
	<circle class="st0" cx="162" cy="409" r="88.1"/>
	<g>
		<path class="st1" d="M398.7,15.9c20-5.1,39.5,10,39.5,30.6v303c0,1.8-0.1,3.6-0.3,5.3c-2.8,31.1-30.2,55.2-62.6,52.7
			c-27.5-2.1-50.2-23.9-53.3-51.3c-3.9-35.2,23.5-65,57.9-65c0.1,0,0.1,0,0.2,0c9.2,0,16.8-7.1,16.8-16.3V134.8
			c0-20.7-19.5-35.8-39.5-30.6l-114.8,29.7c-13.9,3.6-23.7,16.2-23.7,30.6V409c0,0.4,0,0.8,0,1.2c-0.6,32.3-27.1,58.3-59.5,58.3
			c-32.9,0-59.6-26.7-59.6-59.6c0-27.9,19.2-51.3,45.1-57.8c7.4-1.8,12.6-8.3,12.6-15.9V102.3c0-14.4,9.8-27,23.8-30.6L398.7,15.9z"
			/>
	</g>
	<path class="st2" d="M347.2,210c6.2,3.6,6.2,12.5,0,16.1l-31,17.9l-31,17.9c-6.2,3.6-14-0.9-14-8.1v-35.8v-35.8
		c0-7.2,7.8-11.6,14-8.1l31,17.9L347.2,210z"/>
</g>
</svg>
